<?xml version="1.0" encoding="UTF-8" standalone="no"?>
<svg
   version="1.1"
   id="svg2"
   xml:space="preserve"
   width="571.96002"
   height="233.14667"
   viewBox="0 0 571.96002 233.14667"
   sodipodi:docname="ISYS geel_zw.eps"
   xmlns:inkscape="http://www.inkscape.org/namespaces/inkscape"
   xmlns:sodipodi="http://sodipodi.sourceforge.net/DTD/sodipodi-0.dtd"
   xmlns="http://www.w3.org/2000/svg"
   xmlns:svg="http://www.w3.org/2000/svg"><defs
     id="defs6" /><sodipodi:namedview
     id="namedview4"
     pagecolor="#ffffff"
     bordercolor="#666666"
     borderopacity="1.0"
     inkscape:pageshadow="2"
     inkscape:pageopacity="0.0"
     inkscape:pagecheckerboard="0" /><g
     id="g8"
     inkscape:groupmode="layer"
     inkscape:label="ink_ext_XXXXXX"
     transform="matrix(1.3333333,0,0,-1.3333333,0,233.14667)"><g
       id="g10"
       transform="scale(0.1)"><path
         d="m 1907.86,872.211 c -3.36,33.133 -5.05,62.93 -3.36,99.383 l 3.36,1.66 c -3.36,8.285 -5.05,18.215 -3.36,28.146 -11.78,-6.615 -26.9,3.32 -36.99,1.65 l -5.02,3.33 c -10.11,-13.255 -21.85,14.91 -30.26,-3.33 -31.96,-4.956 -65.55,3.33 -97.5,-1.65 l -1.66,6.63 c -30.24,6.62 -58.83,-4.98 -84.04,8.29 -5.03,6.62 -13.44,11.59 -18.48,19.87 -5.05,19.87 -10.08,34.79 -10.08,53.01 -6.71,8.28 -3.37,24.84 -3.37,38.08 6.72,1.67 -3.34,6.63 1.7,9.95 -1.7,1.65 -1.7,3.31 -1.7,4.97 5.06,1.64 5.06,14.91 10.1,19.87 11.76,16.57 10.07,38.1 28.56,49.69 -3.36,4.97 3.36,4.97 5.05,8.28 8.4,18.23 25.21,34.79 28.57,54.66 l 3.34,3.32 c 1.7,31.46 6.71,56.3 -3.34,86.13 -8.4,9.93 -21.85,13.25 -30.26,19.86 -8.41,3.33 -25.21,9.95 -33.62,6.63 0,4.97 -5.03,4.97 -8.4,6.63 -5.03,1.65 -3.34,-4.97 -5.03,-6.63 l -1.69,3.32 c -13.45,-4.97 -28.58,0 -38.64,-8.28 l -1.69,4.96 c -1.68,-9.94 -13.45,-3.3 -16.81,-11.59 -10.09,0 -11.77,-6.62 -18.49,-8.28 -10.08,-8.28 -10.08,-11.6 -15.11,-24.85 -5.05,-1.65 -6.73,-1.65 -6.73,-6.61 -18.49,-36.45 -13.44,-79.52 -6.72,-117.61 h -3.36 c 10.08,-4.97 -5.05,-9.94 3.36,-16.57 -5.04,-3.31 -1.68,-6.61 -1.68,-11.6 6.72,0 6.72,-8.27 15.13,-8.27 5.03,-4.96 15.11,-9.94 16.79,-16.57 15.12,-6.62 8.39,-28.15 23.53,-34.78 -5.05,-23.19 6.72,-51.34 -6.72,-69.56 -1.69,-4.97 1.67,-14.91 -3.36,-18.22 -1.69,-11.6 -15.13,-19.88 -23.52,-29.81 l -3.37,1.65 c -18.48,-29.81 -57.13,-9.94 -89.07,-16.57 -16.8,-1.65 -45.38,3.32 -63.86,-4.97 -5.04,4.97 -18.49,0 -28.58,1.664 v 3.306 c -11.77,-9.931 -40.33,0 -40.33,-28.146 -6.72,-6.633 1.68,-14.91 -6.72,-21.539 3.36,-4.965 -1.69,-6.617 -5.05,-9.934 5.05,-18.211 0,-38.086 1.68,-56.32 1.68,-71.219 6.73,-150.727 -1.68,-221.941 6.73,-31.473 -3.35,-77.844 8.41,-107.661 l -1.68,-1.664 c 3.36,-28.148 3.36,-64.582 15.13,-89.433 1.67,-11.586 -5.05,-24.871 6.72,-29.832 -1.69,-11.598 10.09,-8.289 16.81,-4.981 11.76,0 23.52,1.684 35.29,4.981 8.4,-3.297 18.48,0 26.88,0 10.09,-3.297 16.81,0 25.21,0 5.05,-1.676 8.41,-1.676 13.46,-3.297 47.05,-9.973 84.03,6.59 129.38,3.297 43.7,4.961 90.77,-3.297 136.15,0 1.69,-1.676 3.36,-1.676 1.69,-3.297 6.71,9.91 20.16,4.937 30.24,4.937 10.06,0 23.53,-3.316 33.61,3.321 6.75,-3.321 8.39,-3.321 15.14,1.652 11.75,-3.32 36.96,1.68 53.77,3.32 13.45,4.981 35.3,0 52.09,4.981 3.38,3.332 6.72,4.98 5.04,9.953 l 3.37,4.965 c -1.69,69.574 11.77,120.914 -6.73,187.156 -6.7,13.262 -21.85,9.937 -35.28,6.637 1.68,-9.942 -6.73,-1.664 -10.1,-6.637 -10.07,-14.906 -21.84,-28.152 -33.62,-38.086 l -3.34,-4.965 -25.2,-3.312 c 1.64,-6.629 -8.39,-1.664 -6.75,-9.946 -13.43,0 -11.76,-9.933 -23.51,-9.933 -10.11,-1.653 -8.43,-14.914 -18.49,-11.598 -23.53,-23.18 -57.14,-9.933 -90.77,-14.898 -5.03,-1.66 -13.43,0 -16.8,1.652 -6.7,-8.281 -18.49,-1.652 -28.57,0 -10.09,8.277 -16.79,16.566 -21.84,28.16 -10.1,6.617 -20.18,11.598 -25.21,24.84 l -1.69,6.613 c -5.04,3.321 -1.67,16.567 -10.08,19.887 1.68,6.633 0,9.945 0,18.223 1.68,31.461 -10.07,54.66 -5.06,87.785 6.74,11.598 6.74,26.496 20.19,34.777 l -1.69,1.656 c 8.41,4.969 11.77,16.571 16.82,24.86 5.03,23.172 30.24,18.211 38.64,38.09 10.09,9.925 28.58,-1.672 35.29,9.925 6.73,-1.644 15.12,1.676 20.18,6.637 11.76,-1.672 25.22,8.27 35.3,9.926 8.41,0 16.81,11.602 26.88,8.293 v -3.328 c 8.41,8.285 20.18,1.676 28.59,3.328 8.39,-6.617 30.21,1.66 36.97,-13.258 11.76,-8.285 35.27,-6.633 38.66,-28.16 8.41,-6.617 16.79,-13.242 23.5,-18.219 v 1.653 c 6.73,-6.614 25.22,-1.653 31.94,-13.247 3.36,-4.957 10.08,-3.312 15.14,1.649 l 1.65,-1.649 5.07,3.321 c -1.68,0 -1.68,1.648 -1.68,1.648 l 5.02,4.969 -5.02,3.309 c 6.71,1.668 5.02,9.949 6.71,14.921 -3.35,11.59 1.7,23.172 -3.35,34.77"
         style="fill:#fff200;fill-opacity:1;fill-rule:nonzero;stroke:none"
         id="path12" /><path
         d="m 1288.45,197.391 c 9.9,0 18.9,0.609 27,2.101 v -6.008 c -9.9,-1.187 -13.81,-3.593 -13.81,-9.589 0,-2.403 0.61,-5.704 1.81,-9.598 l 29.69,-89.09 30.31,89.684 c 1.19,3.605 1.79,7.199 1.79,9.601 0,6.008 -3.6,8.106 -13.5,8.992 v 6.008 c 7.81,-1.492 15.6,-2.101 23.71,-2.101 7.79,0 15,0.609 22.5,2.101 v -6.008 c -9.61,-2.089 -13.51,-9.296 -17.71,-21.589 l -41.1,-115.8012 h -21 l -39.89,115.8012 c -4.5,12.902 -7.8,19.793 -17.7,21.589 v 6.008 c 8.4,-1.492 17.7,-2.101 27.9,-2.101"
         style="fill:#000000;fill-opacity:1;fill-rule:nonzero;stroke:none"
         id="path14" /><path
         d="m 1443.04,131.094 c 0.6,-35.4026 23.1,-58.4963 54,-58.4963 16.8,0 31.5,6.6015 45,20.1093 l -3,-21.9062 c -14.1,-11.1055 -31.81,-17.1016 -48.9,-17.1016 -42,0 -74.1,32.6953 -74.1,76.1918 0,42.004 30.3,72.902 69.3,72.902 36.6,0 62.1,-25.496 62.1,-66.301 0,-1.797 -0.3,-3.601 -0.3,-5.398 z m 40.8,56.101 c -20.4,0 -37.5,-15.601 -40.5,-41.394 h 77.4 c -0.6,24.89 -17.4,41.394 -36.9,41.394"
         style="fill:#000000;fill-opacity:1;fill-rule:nonzero;stroke:none"
         id="path16" /><path
         d="m 1574.08,62.3906 c 13.19,1.8086 14.69,8.4102 14.69,21.6133 v 88.1911 c 0,11.7 -2.39,13.801 -14.39,14.399 v 5.094 c 12.89,1.503 26.09,6.007 40.2,12.609 -0.91,-9.004 -1.2,-19.805 -1.2,-31.504 10.5,18.301 25.5,28.191 41.39,28.191 3.3,0 6.3,-0.593 9.3,-1.796 l 2.71,-28.497 h -3.61 c -4.2,4.2 -9,7.2 -15.9,7.2 -19.5,0 -33.6,-17.391 -33.6,-49.797 V 84.0039 c 0,-13.5039 2.1,-20.4101 15.91,-21.6133 v -5.6914 c -10.81,1.4922 -19.81,2.4024 -27.91,2.4024 -7.79,0 -16.8,-0.9102 -27.59,-2.4024 v 5.6914"
         style="fill:#000000;fill-opacity:1;fill-rule:nonzero;stroke:none"
         id="path18" /><path
         d="m 1683.33,62.3906 c 13.51,1.8086 14.7,8.4102 14.7,21.6133 V 247.195 c 0,11.692 -2.7,13.496 -14.7,14.094 v 5.399 c 12.9,1.496 26.4,6.3 41.09,12.609 -1.2,-9.91 -1.49,-19.805 -1.49,-28.797 V 84.0039 c 0,-13.2031 1.2,-19.8047 14.7,-21.6133 v -5.6914 c -10.21,1.4922 -19.5,2.4024 -27.6,2.4024 -6.9,0 -15.9,-0.9102 -26.7,-2.4024 z m 40.8,74.6994 c 29.09,29.109 45.6,44.402 45.6,50.703 0,3.602 -4.81,5.398 -14.1,5.691 v 5.403 c 9.29,-1.192 18.3,-1.496 27,-1.496 9.29,0 18.3,0.609 26.69,1.496 l 0.6,-1.797 c -24.29,-20.695 -43.8,-38.996 -59.39,-54.289 l 27.3,-38.106 c 20.09,-28.1911 35.39,-42.5973 43.19,-42.5973 0.61,0 1.21,0 1.8,0.2929 v -5.6914 c -5.69,0.8985 -12.9,1.1992 -20.4,1.1992 -7.5,0 -14.09,-0.3007 -19.79,-0.8945 -18.61,30.5938 -38.4,56.6951 -58.5,80.0861"
         style="fill:#000000;fill-opacity:1;fill-rule:nonzero;stroke:none"
         id="path20" /><path
         d="m 1838.32,127.488 c 0,45 32.1,75.899 72.29,75.899 39.9,0 72,-30.899 72,-74.395 0,-44.6951 -32.1,-75.8982 -72.3,-75.8982 -39.89,0 -71.99,30.6054 -71.99,74.3942 z m 75.89,-59.3942 c 23.09,0 42.29,21.3085 42.29,51.0002 0,43.203 -22.49,69.293 -49.49,69.293 -23.1,0 -42.6,-21.59 -42.6,-51.297 0,-42.8908 22.8,-68.9962 49.8,-68.9962"
         style="fill:#000000;fill-opacity:1;fill-rule:nonzero;stroke:none"
         id="path22" /><path
         d="m 2010.94,127.488 c 0,45 32.1,75.899 72.29,75.899 39.9,0 72,-30.899 72,-74.395 0,-44.6951 -32.1,-75.8982 -72.3,-75.8982 -39.89,0 -71.99,30.6054 -71.99,74.3942 z m 75.9,-59.3942 c 23.09,0 42.29,21.3085 42.29,51.0002 0,43.203 -22.5,69.293 -49.5,69.293 -23.1,0 -42.59,-21.59 -42.59,-51.297 0,-42.8908 22.79,-68.9962 49.8,-68.9962"
         style="fill:#000000;fill-opacity:1;fill-rule:nonzero;stroke:none"
         id="path24" /><path
         d="M 2236.96,8.69922 V 2.40234 c -11.41,1.49219 -20.41,2.40235 -27,2.40235 -7.21,0 -16.2,-0.91016 -27,-2.40235 v 6.29688 c 11.1,0.59766 14.7,5.40238 14.7,17.10158 V 167.391 c 0,12.902 -0.3,15.609 -14.7,17.406 v 6.004 c 12,2.09 24.9,6.894 39,13.789 -1.21,-10.496 -1.8,-20.402 -1.8,-30 9.9,17.402 27.59,27.305 48.6,27.305 40.79,0 68.39,-27.903 68.39,-72.903 0,-41.9881 -29.69,-74.3943 -68.69,-74.3943 -21.91,0 -37.2,7.5 -45.9,22.1992 V 25.8008 c 0,-11.6992 3.3,-16.50392 14.4,-17.10158 z m 25.79,62.69528 c 28.21,0 47.41,21.9063 47.41,56.6995 0,34.797 -18.91,56.703 -48.3,56.703 -26.7,0 -40.2,-18.91 -40.2,-56.703 0,-37.7932 13.2,-56.6995 41.09,-56.6995"
         style="fill:#000000;fill-opacity:1;fill-rule:nonzero;stroke:none"
         id="path26" /><path
         d="m 2365.2,127.488 c 0,45 32.09,75.899 72.29,75.899 39.89,0 72,-30.899 72,-74.395 0,-44.6951 -32.11,-75.8982 -72.3,-75.8982 -39.9,0 -71.99,30.6054 -71.99,74.3942 z m 75.88,-59.3942 c 23.11,0 42.31,21.3085 42.31,51.0002 0,43.203 -22.5,69.293 -49.5,69.293 -23.1,0 -42.6,-21.59 -42.6,-51.297 0,-42.8908 22.8,-68.9962 49.79,-68.9962"
         style="fill:#000000;fill-opacity:1;fill-rule:nonzero;stroke:none"
         id="path28" /><path
         d="m 2591.21,63 v -6.3008 c -11.7,1.4922 -20.39,2.4024 -27,2.4024 -6.9,0 -15.89,-0.9102 -27,-2.4024 V 63 c 11.11,0.5938 14.7,5.3984 14.7,17.0977 v 87.2933 c 0,12.597 0,15.609 -14.7,17.406 v 6.004 c 10.5,1.496 23.1,6.894 39,13.789 -1.2,-11.106 -1.8,-22.793 -1.8,-34.793 5.71,19.5 23.1,31.797 45,31.797 35.1,0 47.41,-21.606 47.41,-66 V 80.0977 c 0,-11.6993 3.59,-16.5039 14.68,-17.0977 v -6.3008 c -8.09,1.4922 -15.59,2.4024 -22.79,2.4024 -4.2,0 -10.21,0 -18.3,-1.5039 0.9,9.5976 1.5,18.9062 1.5,27.9023 0,1.1992 0,4.5 0,11.0938 v 51.2972 c 0,23.703 -7.2,34.804 -24.9,34.804 -13.8,0 -27.3,-7.804 -34.2,-20.398 -5.69,-10.207 -5.99,-21.301 -5.99,-34.496 0,-2.41 0,-4.801 0,-7.207 V 80.0977 c 0,-11.6993 3.3,-16.5039 14.39,-17.0977"
         style="fill:#000000;fill-opacity:1;fill-rule:nonzero;stroke:none"
         id="path30" /><path
         d="M 2843.74,245.984 V 83.6992 c 0,-14.4023 1.81,-20.3984 15.6,-21.3086 v -5.6914 c -9.3,1.1992 -16.8,2.1016 -22.2,2.1016 -5.4,0 -11.7,-0.6094 -19.5,-2.1016 1.2,7.8047 1.5,16.7969 2.11,27.5977 -11.11,-19.1992 -28.21,-29.4063 -47.41,-29.4063 -35.7,0 -62.69,30.3164 -62.69,73.2034 0,42.597 27.29,72.89 64.49,72.89 18.3,0 32.7,-7.5 44.4,-23.093 v 59.406 c 0,16.187 -1.5,21.59 -16.2,21.59 -0.3,0 -0.89,0 -1.2,0 v 5.105 c 14.11,2.395 28.8,7.805 44.11,15.305 -0.91,-9.91 -1.51,-21.004 -1.51,-33.313 z M 2736.94,129.59 c 0,-34.4923 18.31,-56.9923 41.11,-56.9923 22.5,0 41.09,20.9961 41.09,56.1013 0,35.395 -18,55.489 -40.8,55.489 -22.5,0 -41.4,-20.387 -41.4,-54.598"
         style="fill:#000000;fill-opacity:1;fill-rule:nonzero;stroke:none"
         id="path32" /><path
         d="m 2912.05,131.094 c 0.61,-35.4026 23.11,-58.4963 53.99,-58.4963 16.8,0 31.51,6.6015 45,20.1093 l -2.99,-21.9062 c -14.1,-11.1055 -31.8,-17.1016 -48.9,-17.1016 -42,0 -74.1,32.6953 -74.1,76.1918 0,42.004 30.3,72.902 69.31,72.902 36.59,0 62.09,-25.496 62.09,-66.301 0,-1.797 -0.3,-3.601 -0.3,-5.398 z m 40.79,56.101 c -20.39,0 -37.49,-15.601 -40.5,-41.394 h 77.41 c -0.61,24.89 -17.41,41.394 -36.91,41.394"
         style="fill:#000000;fill-opacity:1;fill-rule:nonzero;stroke:none"
         id="path34" /><path
         d="m 3043.09,62.3906 c 13.2,1.8086 14.7,8.4102 14.7,21.6133 v 88.1911 c 0,11.7 -2.41,13.801 -14.41,14.399 v 5.094 c 12.91,1.503 26.1,6.007 40.21,12.609 -0.91,-9.004 -1.21,-19.805 -1.21,-31.504 10.5,18.301 25.5,28.191 41.4,28.191 3.3,0 6.31,-0.593 9.31,-1.796 l 2.69,-28.497 h -3.6 c -4.19,4.2 -9,7.2 -15.89,7.2 -19.5,0 -33.61,-17.391 -33.61,-49.797 V 84.0039 c 0,-13.5039 2.11,-20.4101 15.91,-21.6133 v -5.6914 c -10.8,1.4922 -19.8,2.4024 -27.91,2.4024 -7.8,0 -16.79,-0.9102 -27.59,-2.4024 v 5.6914"
         style="fill:#000000;fill-opacity:1;fill-rule:nonzero;stroke:none"
         id="path36" /><path
         d="m 3258.23,162.004 h -5.69 c -3.3,16.187 -17.4,26.383 -38.11,26.383 -20.99,0 -33.3,-9.586 -33.3,-21.59 0,-12.902 11.7,-19.199 32.41,-24.902 32.69,-9.004 50.09,-20.403 50.09,-42.2973 0,-25.5039 -24.29,-45.8985 -63,-45.8985 -14.4,0 -29.69,4.1992 -43.49,11.9922 0,2.1094 -0.3,4.1992 -0.3,6.3125 0,5.7031 -0.3,15.3008 -2.09,28.7971 h 5.69 c 4.81,-20.7033 21.01,-32.4026 42.6,-32.4026 22.19,0 35.4,10.8008 35.4,23.6993 0,18.2933 -16.51,21.9063 -39.6,28.2033 -27.9,7.793 -42,21.594 -42,39.59 0,23.109 23.1,42.902 59.7,42.902 17.39,0 31.5,-2.996 39.3,-6.906 0.29,-12.586 1.2,-23.992 2.39,-33.883"
         style="fill:#000000;fill-opacity:1;fill-rule:nonzero;stroke:none"
         id="path38" /><path
         d="m 3331.46,240.293 v -41.406 h 39.3 v -15.293 h -39.3 v -81.895 c 0,-18.6052 4.2,-29.1013 20.4,-29.1013 7.2,0 14.1,2.7031 21.9,7.8007 l -0.9,-18.3007 c -8.99,-5.3985 -18.3,-8.0938 -28.19,-8.0938 -26.11,0 -38.41,14.6953 -38.41,45.293 v 84.2971 h -18 v 15.293 h 18 v 25.508 c 8.7,2.695 15.3,7.8 20.99,15.898 h 4.21"
         style="fill:#000000;fill-opacity:1;fill-rule:nonzero;stroke:none"
         id="path40" /><path
         d="m 3426.76,131.094 c 0.6,-35.4026 23.1,-58.4963 53.99,-58.4963 16.81,0 31.5,6.6015 45,20.1093 l -3,-21.9062 c -14.09,-11.1055 -31.79,-17.1016 -48.89,-17.1016 -42,0 -74.11,32.6953 -74.11,76.1918 0,42.004 30.31,72.902 69.3,72.902 36.6,0 62.11,-25.496 62.11,-66.301 0,-1.797 -0.3,-3.601 -0.3,-5.398 z m 40.8,56.101 c -20.4,0 -37.5,-15.601 -40.5,-41.394 h 77.4 c -0.6,24.89 -17.41,41.394 -36.9,41.394"
         style="fill:#000000;fill-opacity:1;fill-rule:nonzero;stroke:none"
         id="path42" /><path
         d="m 3659.49,84.8906 c -9.9,-19.7929 -24.9,-30 -45,-30 -32.69,0 -45.9,19.8047 -45.9,59.7074 v 54.297 c 0,12.902 -3,16.496 -14.7,16.796 v 5.403 c 13.5,2.097 27.01,6.601 41.11,12.898 -1.5,-10.801 -1.5,-23.105 -1.5,-36.902 v -47.688 c 0,-1.511 0,-2.398 0,-3.007 0,-27.8989 6.59,-41.6997 28.79,-41.6997 23.39,0 35.1,16.8086 35.1,50.1017 v 45 c 0,12.898 -3.3,15.301 -15.3,15.894 v 5.403 c 13.5,2.097 26.7,6.906 41.09,13.496 -1.19,-11.106 -1.19,-22.199 -1.19,-33.289 V 83.0938 c 0,-12.8868 2.1,-19.1993 15,-20.7032 v -5.6914 c -6.6,1.4922 -13.2,2.1016 -20.1,2.1016 -7.2,0 -13.8,-0.6094 -19.19,-1.7969 1.19,8.0938 1.79,17.3984 1.79,27.8867"
         style="fill:#000000;fill-opacity:1;fill-rule:nonzero;stroke:none"
         id="path44" /><path
         d="m 3778.03,63 v -6.3008 c -11.7,1.4922 -20.4,2.4024 -26.99,2.4024 -6.91,0 -15.91,-0.9102 -27.01,-2.4024 V 63 c 11.1,0.5938 14.7,5.3984 14.7,17.0977 v 87.2933 c 0,12.597 0,15.609 -14.7,17.406 v 6.004 c 10.5,1.496 23.1,6.894 39,13.789 -1.19,-11.106 -1.8,-22.793 -1.8,-34.793 5.7,19.5 23.09,31.797 45,31.797 35.1,0 47.4,-21.606 47.4,-66 V 80.0977 c 0,-11.6993 3.6,-16.5039 14.69,-17.0977 v -6.3008 c -8.1,1.4922 -15.6,2.4024 -22.79,2.4024 -4.2,0 -10.2,0 -18.3,-1.5039 0.9,9.5976 1.5,18.9062 1.5,27.9023 0,1.1992 0,4.5 0,11.0938 v 51.2972 c 0,23.703 -7.21,34.804 -24.9,34.804 -13.8,0 -27.31,-7.804 -34.2,-20.398 -5.7,-10.207 -6,-21.301 -6,-34.496 0,-2.41 0,-4.801 0,-7.207 V 80.0977 c 0,-11.6993 3.3,-16.5039 14.4,-17.0977"
         style="fill:#000000;fill-opacity:1;fill-rule:nonzero;stroke:none"
         id="path46" /><path
         d="m 3895.86,62.3906 c 13.2,1.8086 14.71,8.4102 14.71,21.6133 v 88.1911 c 0,11.7 -2.41,13.801 -14.41,14.399 v 5.094 c 12.6,1.503 25.8,6.007 40.8,12.609 -1.2,-9.309 -1.5,-18.906 -1.5,-28.797 V 84.0039 c 0,-13.5039 1.81,-20.1094 15,-21.6133 v -5.6914 c -10.21,1.4922 -19.5,2.4024 -27.6,2.4024 -6.9,0 -15.9,-0.9102 -27,-2.4024 z M 3921.66,258 c 9,0 16.8,-7.816 16.8,-17.707 0,-9.309 -7.5,-16.809 -17.41,-16.809 -8.99,0 -16.49,7.5 -16.49,17.11 0,8.996 7.2,17.406 17.1,17.406"
         style="fill:#000000;fill-opacity:1;fill-rule:nonzero;stroke:none"
         id="path48" /><path
         d="m 4031.13,63 v -6.3008 c -11.7,1.4922 -20.39,2.4024 -26.99,2.4024 -6.91,0 -15.9,-0.9102 -27,-2.4024 V 63 c 11.1,0.5938 14.7,5.3984 14.7,17.0977 v 87.2933 c 0,12.597 0,15.609 -14.7,17.406 v 6.004 c 10.5,1.496 23.09,6.894 38.99,13.789 -1.19,-11.106 -1.79,-22.793 -1.79,-34.793 5.7,19.5 23.1,31.797 45,31.797 35.09,0 47.4,-21.606 47.4,-66 V 80.0977 c 0,-11.6993 3.59,-16.5039 14.69,-17.0977 v -6.3008 c -8.1,1.4922 -15.6,2.4024 -22.8,2.4024 -4.2,0 -10.19,0 -18.3,-1.5039 0.9,9.5976 1.51,18.9062 1.51,27.9023 0,1.1992 0,4.5 0,11.0938 v 51.2972 c 0,23.703 -7.21,34.804 -24.91,34.804 -13.8,0 -27.3,-7.804 -34.2,-20.398 -5.7,-10.207 -5.99,-21.301 -5.99,-34.496 0,-2.41 0,-4.801 0,-7.207 V 80.0977 c 0,-11.6993 3.3,-16.5039 14.39,-17.0977"
         style="fill:#000000;fill-opacity:1;fill-rule:nonzero;stroke:none"
         id="path50" /><path
         d="m 4284.57,183 c -5.11,-0.91 -8.71,-0.91 -10.51,-0.91 -5.7,0 -11.7,0.301 -18,1.805 9.31,-8.7 13.8,-18.008 13.8,-30 0,-27.594 -24.9,-51.598 -58.19,-51.598 -11.71,0 -21.6,3.004 -31.5,9.004 -7.81,-5.403 -12,-9.004 -12,-14.7072 0,-12.8946 15.29,-15.293 45.6,-15.9024 45,-0.8867 70.19,-5.6914 70.19,-33.5937 C 4283.96,20.7031 4257.87,0 4214.06,0 c -33.89,0 -52.79,15 -52.79,34.1992 0,4.5 1.5,8.6992 3.9,13.1914 l 24.6,9.3086 c -3.31,-5.6914 -4.81,-10.8008 -4.81,-15.8984 0,-15.3008 12.91,-26.3985 33.3,-26.3985 23.11,0 38.41,12.2969 38.41,26.0977 0,13.7969 -12.61,18.0078 -36.3,18.0078 -4.2,0 -8.41,0 -12.3,0 -17.7,0 -31.8,0.293 -43.21,4.793 -12.29,5.0976 -20.09,15.5937 -20.09,28.4961 0,2.707 0.3,6.2969 1.19,9.9021 11.71,5.098 20.71,9.895 26.4,15 -9.29,9.895 -14.1,21.602 -14.1,34.188 0,30.312 23.7,51.601 59.41,51.601 15.29,0 30.89,-5.691 50.69,-5.691 7.8,0 14.71,0.594 21.31,2.09 z m -102.3,-26.699 c 0,-22.5 16.19,-38.703 34.19,-38.703 15.9,0 29.7,13.496 29.7,32.39 0,21.313 -14.99,37.805 -33.29,37.805 -16.5,0 -30.6,-12.293 -30.6,-31.492"
         style="fill:#000000;fill-opacity:1;fill-rule:nonzero;stroke:none"
         id="path52" /><path
         d="m 63.9922,834.98 c 21.7617,0 42.8788,1.282 63.9958,5.122 V 827.305 C 97.9102,822.82 93.4336,811.941 93.4336,782.504 V 477.246 c 0,-29.433 4.4766,-39.68 34.5544,-44.797 v -12.793 c -22.398,3.196 -43.5153,5.11 -63.9958,5.11 -20.4766,0 -42.2344,-1.914 -63.9922,-5.11 v 12.793 c 30.7188,5.117 34.5547,15.364 34.5547,44.797 v 305.258 c 0,28.801 -3.8359,40.316 -34.5547,44.801 v 12.797 c 14.7148,-2.559 35.8359,-5.122 63.9922,-5.122"
         style="fill:#000000;fill-opacity:1;fill-rule:nonzero;stroke:none"
         id="path54" /><path
         d="m 428.344,803.625 c 0,-22.398 1.281,-47.996 4.476,-78.074 h -11.515 c -9.602,56.953 -47.356,85.754 -113.914,85.754 -64.633,0 -104.309,-30.719 -104.309,-71.676 0,-42.875 37.117,-58.875 103.031,-76.797 94.711,-24.957 147.832,-47.992 147.832,-116.469 0,-72.316 -67.195,-132.476 -174.711,-132.476 -48.632,0 -94.074,10.246 -132.468,29.445 0.64,18.559 0.64,30.715 0.64,36.477 0,26.875 -1.281,52.476 -3.203,78.711 h 10.879 c 9.602,-71.676 52.481,-109.426 121.594,-109.426 71.035,0 111.992,33.914 111.992,78.07 0,33.922 -25.598,64.637 -67.195,76.156 -53.758,15.356 -97.274,24.957 -126.711,44.157 -32.637,21.757 -48.637,49.277 -48.637,83.191 0,67.199 60.797,116.469 163.188,116.469 38.398,0 78.714,-6.395 119.031,-19.832 0,-0.641 0,-8.961 0,-23.68"
         style="fill:#000000;fill-opacity:1;fill-rule:nonzero;stroke:none"
         id="path56" /><path
         d="m 535.465,432.449 c 33.273,5.117 36.473,14.719 36.473,46.723 v 106.867 l -108.79,207.344 c -11.519,22.398 -26.238,33.922 -45.437,34.562 v 12.157 c 21.758,-3.2 44.16,-4.481 67.195,-4.481 23.039,0 44.797,1.281 65.914,4.481 v -12.157 c -18.558,-2.562 -28.16,-7.683 -28.16,-17.922 0,-4.48 1.926,-12.796 7.68,-23.035 l 82.555,-158.711 74.878,151.028 c 5.118,10.879 8.954,19.203 8.954,27.519 0,14.078 -7.676,18.559 -30.071,21.121 v 12.157 c 17.914,-3.2 38.391,-3.84 59.512,-3.84 20.477,0 39.676,0.64 57.598,3.84 v -12.157 c -19.84,-1.922 -33.918,-16.004 -48,-43.519 L 631.453,583.48 V 479.172 c 0,-32.004 3.199,-41.606 35.84,-46.723 v -12.793 c -21.762,3.196 -43.52,5.11 -65.914,5.11 -22.399,0 -44.156,-1.282 -65.914,-5.11 v 12.793"
         style="fill:#000000;fill-opacity:1;fill-rule:nonzero;stroke:none"
         id="path58" /><path
         d="m 1038.1,803.625 c 0,-22.398 1.28,-47.996 4.48,-78.074 h -11.52 c -9.6,56.953 -47.353,85.754 -113.912,85.754 -64.632,0 -104.312,-30.719 -104.312,-71.676 0,-42.875 37.121,-58.875 103.031,-76.797 94.713,-24.957 147.833,-47.992 147.833,-116.469 0,-72.316 -67.196,-132.476 -174.712,-132.476 -48.633,0 -94.07,10.246 -132.465,29.445 0.641,18.559 0.641,30.715 0.641,36.477 0,26.875 -1.281,52.476 -3.203,78.711 h 10.879 c 9.598,-71.676 52.473,-109.426 121.59,-109.426 71.035,0 111.992,33.914 111.992,78.07 0,33.922 -25.594,64.637 -67.192,76.156 -53.761,15.356 -97.277,24.957 -126.714,44.157 -32.637,21.757 -48.633,49.277 -48.633,83.191 0,67.199 60.793,116.469 163.183,116.469 38.399,0 78.715,-6.395 119.034,-19.832 0,-0.641 0,-8.961 0,-23.68"
         style="fill:#000000;fill-opacity:1;fill-rule:nonzero;stroke:none"
         id="path60" /><path
         d="m 2624.75,371.055 c -11.74,-3.371 -6.7,11.746 -13.41,15.109 -13.42,-1.691 -23.5,3.348 -35.23,-1.691 -6.73,5.039 -15.11,1.691 -21.82,0 v 3.347 c -8.39,0 -20.13,-1.656 -23.49,0 -15.1,1.692 -36.91,-1.656 -53.69,0 -3.36,3.36 -5.02,-1.656 -10.06,1.692 -16.78,-6.711 -33.55,5.031 -52.02,0 -6.7,1.668 -13.43,3.347 -21.82,0 v 1.668 c -15.1,5.039 -26.83,-3.36 -40.26,1.679 -16.79,-6.695 -33.57,1.684 -48.65,-5.039 v 3.36 l -3.36,-3.36 v 3.36 l -6.72,-1.668 c -20.13,1.668 -45.29,-3.348 -63.75,0 -6.71,-8.379 -15.09,3.347 -20.14,-5.039 l -5.03,3.347 c -1.68,0 -3.37,-1.656 -3.37,-3.347 -3.34,3.347 -8.39,5.039 -11.73,0 v 1.691 c -21.82,-3.363 -38.6,1.656 -62.07,3.348 -23.5,-1.692 -43.64,-1.692 -68.81,-1.692 -6.69,8.399 -16.77,-5.019 -23.48,1.692 -5.03,-1.692 -8.39,0 -11.75,-1.692 -28.52,0 -52,-1.656 -78.86,-1.656 -63.75,-5.031 -119.12,-3.363 -184.56,-5.031 -10.06,5.031 -30.2,5.031 -40.26,1.668 -31.89,3.363 -68.79,1.672 -99,-3.367 -58.71,0 -132.55,0 -201.34,3.367 l -3.35,-5.039 c -5.04,5.039 -15.1,0 -21.81,5.039 -8.4,-5.039 -18.46,0 -25.17,-3.367 -35.24,8.386 -77.19,0 -107.38,23.496 -5.04,6.707 0,15.097 1.68,21.804 -6.72,70.481 -15.11,129.207 -16.78,197.989 -11.75,273.484 -15.11,541.947 -16.78,822.157 0,10.06 0,21.8 0,30.19 11.74,72.15 1.67,152.68 20.13,226.51 l -6.72,8.39 c 3.37,10.06 6.72,18.45 16.79,21.81 l 3.36,-1.67 c 176.17,15.09 370.79,10.05 538.58,18.45 45.3,-8.4 102.36,1.67 140.93,-21.82 -6.71,0 -5.01,-8.39 -3.35,-11.74 l -5.02,-3.36 c 0,-3.36 0,-6.7 3.36,-10.06 1.66,0 5.01,1.67 6.69,0 -5.03,-46.98 -1.68,-107.39 -6.69,-151.01 l 1.66,-6.71 c -5.02,-18.45 0,-40.27 -1.66,-58.73 1.66,-147.64 6.69,-283.55 3.34,-434.55 18.46,0 43.63,-1.69 58.71,0 20.15,1.68 45.32,0 63.77,0 8.39,6.71 25.17,-3.35 30.21,5.03 l 3.35,-3.35 c 45.29,-1.68 100.67,5.03 151.01,1.67 70.45,6.72 127.52,-3.35 197.98,5.04 58.72,-1.68 120.8,0 181.21,-8.39 1.67,3.35 6.72,10.07 13.42,10.07 10.06,6.71 18.46,8.38 28.52,8.38 -5.03,-65.43 -6.72,-105.698 -10.06,-167.776 8.39,-11.75 -6.72,-18.465 1.67,-31.891 -3.35,-10.05 1.67,-20.136 -3.35,-30.191 0,-62.082 -1.68,-130.867 1.68,-194.641 -13.44,-73.812 5.03,-161.062 -13.44,-234.894 1.69,-6.707 3.36,-18.457 1.69,-26.836 -11.75,3.363 -11.75,-13.426 -23.5,-11.746 z M 1478.8,418.027 c 97.31,3.36 196.32,3.36 303.68,5.047 38.6,0 83.9,3.344 124.16,5.02 6.73,45.308 -8.39,78.871 1.68,124.164 3.36,36.906 -6.7,70.465 0,104.027 l -1.68,1.684 3.36,3.344 -3.36,3.355 -5.02,-5.023 c -23.49,-1.676 -43.64,-3.36 -65.45,-10.063 -21.81,-10.074 -30.21,-31.887 -52,-45.309 h 5.03 c -11.75,-18.468 -33.56,-25.168 -48.66,-25.168 -11.74,-6.714 -16.79,-8.386 -25.17,-15.105 -6.7,10.078 -21.82,-6.703 -33.55,-5.031 -48.66,-5.028 -95.63,20.136 -117.46,60.394 -30.19,45.305 -16.77,102.36 -1.66,151.008 30.19,52.02 82.21,97.328 142.6,105.719 40.27,13.414 88.93,-1.695 120.81,-21.828 5.02,-3.34 6.7,-8.387 6.7,-15.09 11.76,-16.781 21.84,-48.668 46.99,-46.977 0,1.672 1.68,3.344 1.68,3.344 1.67,-3.344 5.02,-3.344 10.06,-3.344 0,1.672 -1.68,1.672 -1.68,1.672 l 1.68,1.672 c 3.36,-6.699 10.08,1.688 15.1,0 0,1.688 0,5.047 1.68,5.047 h 1.68 c 3.37,62.07 -1.68,140.926 -1.68,213.084 -65.43,1.67 -129.19,1.67 -192.95,-3.36 3.36,8.39 -8.4,0 -10.07,6.71 -11.75,8.39 -33.55,-1.68 -35.22,15.1 -35.25,1.68 -41.95,45.31 -53.69,72.15 -1.7,55.37 36.91,107.38 85.56,135.9 0,31.88 25.17,55.38 13.42,90.61 -6.7,26.84 -13.42,62.08 -45.29,70.46 -13.44,6.72 -33.56,6.72 -43.63,8.39 -26.84,0 -50.34,-10.06 -72.15,-20.13 -6.71,-10.07 -30.2,-3.36 -25.17,-20.14 -11.74,-3.34 -16.77,-20.13 -23.49,-30.2 -20.12,-40.27 -21.81,-85.56 -6.71,-127.51 8.4,-8.39 6.71,-23.49 18.46,-30.2 28.53,-11.74 30.2,-50.34 36.91,-75.5 6.72,-13.43 -5.02,-26.85 3.36,-38.59 0,-13.43 -6.72,-23.49 -13.42,-35.24 -10.07,-8.39 -28.52,-3.35 -35.24,-16.78 0,3.36 -1.67,5.03 -5.04,6.72 -5.03,-6.72 -13.41,-1.69 -15.1,-6.72 -1.67,0 -1.67,1.68 -1.67,1.68 -33.56,-6.71 -62.08,5.04 -93.96,-5.04 -8.39,-3.35 -21.81,-1.67 -33.56,-3.35 0,-1.68 0,-3.35 0,-3.35 l -5.03,5.03 -75.5,1.67 c -1.68,-78.859 -1.68,-167.781 5.03,-243.285 -1.68,-95.64 -5.03,-208.054 6.71,-305.363 l -1.67,-43.625 c 48.66,-5.031 90.6,1.68 140.93,-3.359 5.04,5.039 8.4,-3.348 13.42,1.679 10.07,1.68 23.49,-1.679 35.24,0 z m 984.89,16.778 c 48.64,1.687 100.67,-1.668 149.32,-5.032 1.68,50.332 -6.7,110.743 1.68,164.422 -1.68,100.672 -1.68,208.063 6.7,310.403 3.36,30.215 -1.68,72.156 5.06,104.032 -5.06,-1.68 -5.06,3.35 -6.74,6.71 v 6.72 c -70.46,5.03 -156.02,-3.36 -231.52,0 -36.92,-5.04 -83.89,-5.04 -120.81,-3.36 0,-1.68 0,-1.68 -1.67,-1.68 -3.36,8.39 -13.44,-3.35 -20.14,3.35 -15.1,-6.7 -33.56,1.69 -50.34,-3.35 -45.3,5.04 -93.96,-1.68 -142.6,-3.35 -23.5,5.03 -50.34,-1.69 -75.51,-1.69 -10.08,0 -23.5,1.69 -33.57,1.69 -1.67,-67.123 11.76,-130.881 0,-199.666 0,-5.031 -13.41,-13.418 -1.67,-16.777 l 1.67,-6.723 c 1.68,0 6.71,1.691 8.4,-3.356 -1.69,-11.726 -16.77,-15.089 -25.16,-20.117 -31.89,-15.105 -67.12,-11.754 -97.32,3.34 -33.55,23.496 -40.27,77.184 -88.93,77.184 -53.68,-3.356 -95.63,-40.27 -134.24,-77.184 -6.69,-16.781 -30.19,-28.512 -20.11,-50.332 -3.36,-25.172 0,-53.684 8.39,-77.18 16.77,-28.523 46.97,-45.3 75.5,-46.976 62.07,8.39 102.33,70.472 156.03,93.953 v -1.668 c 31.87,15.09 73.81,5.035 107.37,10.055 13.44,-11.743 18.47,-33.555 18.47,-52.004 3.36,-16.778 8.39,-35.242 3.36,-52.024 1.67,-31.871 3.34,-67.105 -5.05,-95.625 -5.03,-23.492 11.75,-48.656 -3.34,-70.476 167.79,8.398 330.52,6.711 516.77,6.711 z m -961.4,610.735 c 8.39,5.04 11.74,13.43 13.43,23.49 -6.72,31.89 0,78.86 -35.25,93.96 -20.13,35.24 -40.26,77.18 -31.87,119.13 10.07,50.33 30.2,105.71 82.2,127.51 52.03,28.53 119.14,50.33 176.17,20.14 26.87,-10.07 36.92,-38.59 48.67,-62.08 1.66,-25.17 15.11,-50.34 5.03,-73.83 -13.42,-18.45 11.74,-31.87 -1.67,-48.65 -13.43,-23.49 -38.59,-31.89 -58.73,-45.31 -23.48,-26.84 -53.69,-55.36 -41.94,-93.95 -1.69,-11.75 6.7,-21.81 6.7,-33.56 15.11,-52.02 78.86,-21.81 119.14,-26.85 l 85.56,1.69 c 1.68,5.03 10.07,0 16.77,1.66 l 21.82,1.69 c 0,162.74 -5.03,300.33 -6.7,468.11 3.36,45.31 5.02,93.97 6.7,140.94 0,6.71 1.68,16.78 1.68,25.17 0,6.7 11.75,15.1 1.68,20.14 -11.76,-8.4 -26.85,-1.69 -43.63,-3.36 -15.09,1.67 -35.24,1.67 -46.97,0 v 3.36 c -21.83,-5.04 -36.91,0 -60.41,-5.04 -10.06,-1.68 -20.13,10.07 -30.2,1.68 l -40.27,-1.68 c -5.04,6.72 -16.78,-3.36 -25.17,0 -15.09,0 -26.84,0 -38.58,0 l -5.04,3.35 c -3.34,-1.67 -15.11,-5.03 -20.12,-1.67 -8.4,6.7 -20.15,-10.08 -26.85,0 -15.1,-8.39 -26.85,-1.68 -41.94,-5.04 -15.11,1.68 -30.21,-3.35 -45.31,0 -30.2,-3.35 -63.76,1.68 -92.28,3.36 -21.82,0 -41.95,1.68 -60.41,1.68 -10.07,-6.72 -28.52,0 -36.91,-5.04 -1.67,1.68 -6.71,5.04 -8.38,1.68 11.74,-13.42 -11.75,-30.2 -3.36,-43.62 6.7,-45.3 -11.75,-92.28 -10.07,-134.23 5.04,-23.48 1.68,-58.73 3.36,-85.57 10.07,-1.67 -6.71,-6.71 0,-15.1 h -3.36 c 5.04,-31.87 -5.03,-72.15 -3.35,-112.41 h 1.67 l 1.68,-1.68 -1.68,-3.35 -3.35,1.67 c -3.36,-28.52 1.68,-62.08 -3.36,-92.28 5.04,-20.14 3.36,-41.94 5.04,-63.76 5.03,-15.1 -3.36,-33.55 3.35,-46.97 -1.68,-16.78 1.68,-40.27 0,-58.73 28.52,-3.36 63.76,5.04 93.96,3.35 45.3,1.69 88.93,6.72 132.55,0"
         style="fill:#000000;fill-opacity:1;fill-rule:nonzero;stroke:none"
         id="path62" /></g></g></svg>
