<svg width="515" height="240" viewBox="0 0 515 240" fill="none" xmlns="http://www.w3.org/2000/svg">
<g clip-path="url(#clip0_3_2)">
<path d="M287.596 193.392C269.241 215.891 210.004 234.223 146.596 208.391C76.6089 179.879 25.747 209.734 3.09299 119.229C-3.58161 92.5637 1.4243 40.8998 9.7675 21.7341C18.1107 2.568 109.052 10.068 157.442 5.068C205.832 0.0690022 310.784 -0.764998 315.79 5.068C320.796 10.901 301.189 41.6625 302.023 67.4945C302.858 93.3265 320.134 120.062 320.968 139.228C321.803 158.394 305.951 170.893 287.596 193.392Z" fill="#007AFF"/>
<path d="M138 155C122.394 127.108 207.45 92.1558 263 59C324.313 22.4042 305.391 -23.5991 411.148 14.1559C442.307 25.2796 494.688 60.6711 511.23 78.8045C527.773 96.9378 504 197 454 188C411.149 180.287 368.747 201.233 303.198 227.664C188.793 273.794 147.075 171.219 138 155Z" fill="#6E44FF"/>
</g>
<defs>
<clipPath id="clip0_3_2">
<rect width="515" height="240" fill="white"/>
</clipPath>
</defs>
</svg>
