<svg width="572" height="240" viewBox="0 0 572 240" fill="none" xmlns="http://www.w3.org/2000/svg">
<g clip-path="url(#clip0_3_2)">
<path d="M287.596 193.392C269.241 215.891 210.004 234.223 146.596 208.391C76.6089 179.879 25.747 209.734 3.09299 119.229C-3.58161 92.5637 1.4243 40.8998 9.7675 21.7341C18.1107 2.568 109.052 10.068 157.442 5.068C205.832 0.0690022 310.784 -0.764998 315.79 5.068C320.796 10.901 407.166 10.168 408 36C408.835 61.832 320.134 120.062 320.968 139.228C321.803 158.394 305.951 170.893 287.596 193.392Z" fill="#007AFF"/>
<path d="M192.88 155C177.274 127.108 262.331 92.1558 317.88 59C379.193 22.4042 360.271 -23.5991 466.028 14.1559C497.188 25.2796 549.568 60.6711 566.111 78.8045C582.653 96.9378 558.88 197 508.88 188C466.029 180.287 423.627 201.233 358.078 227.664C243.673 273.794 201.955 171.219 192.88 155Z" fill="#6E44FF"/>
</g>
<defs>
<clipPath id="clip0_3_2">
<rect width="572" height="240" fill="white"/>
</clipPath>
</defs>
</svg>
